<svg xmlns="http://www.w3.org/2000/svg" viewBox="0 0 64 64" width="64" height="64"><rect x="0" y="0" width="64" height="64" rx="16" fill="#4f46e5"/><g transform="translate(18.18,18.18) scale(1.1520)"><path d="M12 14.5C9.2 14.5 7 12.3 7 9.5C7 5 9.8 2.5 12 2.5C14.2 2.5 17 5 17 9.5C17 12.3 14.8 14.5 12 14.5Z" fill="none" stroke="#ffffff" stroke-width="1.8" stroke-linecap="round" stroke-linejoin="round"/><path d="M12 7.7A1.8 1.8 0 1 1 12 11.3A1.8 1.8 0 1 1 12 7.7Z" fill="none" stroke="#ffffff" stroke-width="1.8" stroke-linecap="round" stroke-linejoin="round"/><path d="M8.5 9.5L5 6.5" fill="none" stroke="#ffffff" stroke-width="1.8" stroke-linecap="round" stroke-linejoin="round"/><path d="M15.5 9.5L19 6.5" fill="none" stroke="#ffffff" stroke-width="1.8" stroke-linecap="round" stroke-linejoin="round"/><path d="M12 14.5V18" fill="none" stroke="#ffffff" stroke-width="1.8" stroke-linecap="round" stroke-linejoin="round"/><path d="M10.5 15.5V17.5" fill="none" stroke="#ffffff" stroke-width="1.8" stroke-linecap="round" stroke-linejoin="round"/><path d="M13.5 15.5V17.5" fill="none" stroke="#ffffff" stroke-width="1.8" stroke-linecap="round" stroke-linejoin="round"/></g></svg>